<svg xmlns="http://www.w3.org/2000/svg" width="1080" height="640" viewBox="0 0 1080 640" role="img" aria-labelledby="title desc">
  <title id="title">agent-context workflow demo</title>
  <desc id="desc">A warm paper two-panel workflow showing Claude and Codex reading agent-context before focused code work.</desc>
  <defs>
    <filter id="shadow" x="-20%" y="-20%" width="140%" height="150%">
      <feDropShadow dx="0" dy="12" stdDeviation="14" flood-color="#111827" flood-opacity="0.12"/>
    </filter>
    <style>
      .h1 { font: 800 34px Inter, Arial, sans-serif; fill: #111827; }
      .body { font: 19px Inter, Arial, sans-serif; fill: #475569; }
      .mono { font: 17px ui-monospace, SFMono-Regular, Menlo, monospace; fill: #CBD5E1; }
      .termTitle { font: 800 16px Inter, Arial, sans-serif; fill: #CBD5E1; }
    </style>
  </defs>
  <rect width="1080" height="640" fill="#FDFCF8"/>
  <rect x="42" y="38" width="996" height="564" rx="8" fill="#FFF7E8" stroke="#E8D9BE"/>
  <text class="h1" x="74" y="94">Every agent starts from the same repo evidence</text>
  <text class="body" x="76" y="128">The routing block points tools at .agent-context before source exploration.</text>
  <g filter="url(#shadow)">
    <rect x="74" y="174" width="438" height="320" rx="8" fill="#111827"/>
    <circle cx="102" cy="202" r="7" fill="#FCA5A5"/>
    <circle cx="126" cy="202" r="7" fill="#FDE68A"/>
    <circle cx="150" cy="202" r="7" fill="#86EFAC"/>
    <text class="termTitle" x="188" y="208">Claude Code</text>
    <text class="mono" x="98" y="254">Read .agent-context/current/00_START_HERE.md</text>
    <text class="mono" x="98" y="292">Load invariants and code map</text>
    <text class="mono" x="98" y="330">Open only named source paths</text>
    <text x="98" y="390" fill="#FDE68A" font-family="ui-monospace, SFMono-Regular, Menlo, monospace" font-size="17">result: scoped patch plan</text>
  </g>
  <g filter="url(#shadow)">
    <rect x="568" y="174" width="438" height="320" rx="8" fill="#111827"/>
    <circle cx="596" cy="202" r="7" fill="#FCA5A5"/>
    <circle cx="620" cy="202" r="7" fill="#FDE68A"/>
    <circle cx="644" cy="202" r="7" fill="#86EFAC"/>
    <text class="termTitle" x="682" y="208">Codex CLI</text>
    <text class="mono" x="592" y="254">Read routes.json + search_scope.json</text>
    <text class="mono" x="592" y="292">Search only relevant directories</text>
    <text class="mono" x="592" y="330">Verify shortcut signatures</text>
    <text x="592" y="390" fill="#FDE68A" font-family="ui-monospace, SFMono-Regular, Menlo, monospace" font-size="17">result: evidence-backed answer</text>
  </g>
  <rect x="304" y="532" width="472" height="42" rx="8" fill="#FFFFFF" stroke="#E8D9BE"/>
  <text class="body" x="540" y="559" text-anchor="middle">Same artifacts, different operating loops.</text>
</svg>
